# xmcd CD database file
#
# Track frame offsets:
#	150
#	21533
#	34524
#	45195
#	61698
#	77831
#	86487
#	99865
#	123574
#	144292
#
# Disc length: 2628 seconds
#
# Revision: 0
# Processed by: cddbd v1.5.1PL0 Copyright (c) Steve Scherf et al.
# Submitted via: CDex 1.51
#
DISCID=6f0a420a
DTITLE=Hideki Kaji - HIDEKI KAJI RARE TRACKS '96-'04 Disc 2
DYEAR=2005
DGENRE=Pop
TTITLE0=DISCO MADONNA
TTITLE1=FOOTBALLING WEEKENDERS dj celory mix
TTITLE2=GENTLE WAVES - New version
TTITLE3=SEPARATE WAYS
TTITLE4=PRETTY and VACANT
TTITLE5=1234
TTITLE6=THIS IS STILL OK feat. helena josefsson
TTITLE7=IVY IVORY IVY escalator mix
TTITLE8=45 IS MAGIC NUMBER
TTITLE9=EGGSTONE (Tore Johansson remix)
EXTD=YEAR: 2005
EXTT0=
EXTT1=
EXTT2=
EXTT3=
EXTT4=
EXTT5=
EXTT6=
EXTT7=
EXTT8=
EXTT9=
PLAYORDER=
